<svg width="1200" height="520" viewBox="0 0 1200 520" fill="none" xmlns="http://www.w3.org/2000/svg">
  <rect width="1200" height="520" rx="18" fill="#172022"/>
  <path d="M185 151C245 78 346 71 412 116C473 158 455 232 527 253C590 271 634 223 700 249C769 276 786 358 852 375C912 391 961 343 1018 365C1062 382 1083 427 1087 459H151C135 410 152 339 216 307C266 281 313 292 348 264C389 231 350 160 290 143C247 131 212 135 185 151Z" fill="#273a35"/>
  <path d="M282 94C335 56 408 73 449 122C482 161 468 207 509 231C548 254 596 223 635 248C678 275 657 337 698 369C735 398 783 370 818 396C844 416 851 449 851 474H91C103 433 129 396 172 374C230 344 286 366 325 331C364 295 329 249 358 208C391 162 452 180 461 137C468 101 417 70 363 67C329 65 301 75 282 94Z" fill="#445142"/>
  <path d="M731 110C780 76 854 78 904 112C942 137 942 170 986 194C1040 224 1099 203 1129 243C1155 277 1139 331 1111 363C1063 418 980 391 932 433C902 459 897 496 897 508H662C661 466 681 429 723 407C770 382 818 398 847 363C887 315 799 274 822 211C837 171 886 170 881 140C876 106 790 94 731 110Z" fill="#4a3c2d"/>
  <path d="M226 239C277 215 325 222 374 245C432 272 445 315 503 326C552 335 583 313 625 336C673 362 675 411 718 434C758 456 806 442 837 428" stroke="#7c8f77" stroke-width="18" stroke-linecap="round"/>
  <path d="M169 417C235 389 294 405 358 388C430 368 433 322 497 311C575 297 608 359 681 346C753 333 761 266 831 252C896 240 944 287 1005 274C1059 263 1088 215 1102 184" stroke="#24373b" stroke-width="13" stroke-linecap="round"/>
  <path d="M122 305C178 295 206 254 255 235C332 205 379 267 450 236C503 213 513 157 565 141C642 116 704 209 786 190C843 177 854 123 910 117C958 112 995 149 1021 184" stroke="#b08d57" stroke-width="8" stroke-linecap="round" opacity=".8"/>
  <circle cx="210" cy="140" r="28" fill="#5d6a46"/>
  <circle cx="932" cy="151" r="34" fill="#6c563a"/>
  <circle cx="559" cy="154" r="20" fill="#677b61"/>
  <circle cx="675" cy="404" r="26" fill="#5e7255"/>
  <g opacity=".22" stroke="#f5f0e8" stroke-width="2">
    <path d="M80 80H1120"/>
    <path d="M80 160H1120"/>
    <path d="M80 240H1120"/>
    <path d="M80 320H1120"/>
    <path d="M80 400H1120"/>
    <path d="M160 40V480"/>
    <path d="M320 40V480"/>
    <path d="M480 40V480"/>
    <path d="M640 40V480"/>
    <path d="M800 40V480"/>
    <path d="M960 40V480"/>
  </g>
</svg>
